<?xml version="1.0" encoding="UTF-8"?><svg id="Layer_1" xmlns="http://www.w3.org/2000/svg" viewBox="0 0 622.81 116.74"><defs><style>.cls-1{fill:#724c9f;}</style></defs><rect class="cls-1" y="0" width="34.37" height="116.74" rx="11.85" ry="11.85"/><path class="cls-1" d="M88.29,23.7v22.52h66.08c3.6,0,6.52,2.92,6.52,6.52v10.96c0,3.6-2.92,6.52-6.52,6.52H88.29v22.52h78.63c3.38,0,6.11,2.74,6.11,6.12v11.47c0,3.38-2.73,6.12-6.11,6.12H79.05c-.84,.19-1.71,.29-2.61,.29h-8.29c-6.55,0-11.86-5.3-11.86-11.85V11.85c0-5.35,3.56-9.88,8.44-11.35,1.08-.33,2.23-.5,3.42-.5h98.77c3.38,0,6.11,2.74,6.11,6.12v11.47c0,3.38-2.73,6.11-6.11,6.11H88.29Z"/><path class="cls-1" d="M68.15,0c-1.19,0-2.34,.17-3.42,.5,.74-.32,1.56-.5,2.42-.5h1Z"/><path class="cls-1" d="M311.41,40.74c-1.19-10.05-7.09-32.89-36-39.99-.69-.17-1.4-.25-2.11-.25h-77.75s-2.9,.05-5.25,2.31c-1.65,1.58-2.45,3.84-2.45,6.13V107.85c0,4.91,3.98,8.89,8.89,8.89h13.03c4.91,0,8.89-3.98,8.89-8.89v-8.89c0-4.91,3.98-8.89,8.89-8.89h29.85c2.15,0,4.23-.77,5.85-2.19l45.17-39.45c2.2-1.92,3.33-4.79,2.99-7.69Zm-48.89,26.82h-43.86V23.7s50.43-1.47,53.93,5.34c17,33.08-10.07,38.52-10.07,38.52Z"/><path class="cls-1" d="M436,.5h-60.96c-.35,0-.7,.03-1.04,.08-20.84,3.46-32.43,13.82-35.79,17.26-.66,.68-1.15,1.52-1.43,2.43l-27.17,87.89c-1.27,4.11,2.01,8.2,6.3,7.85l22.91-1.88c2.57-.21,4.73-2.02,5.38-4.51l4.24-16.2c.7-2.67,3.11-4.53,5.87-4.53h50.88c3.35,0,6.07,2.72,6.07,6.07v15.71c0,3.35,2.71,6.07,6.07,6.07h18.67c3.35,0,6.07-2.72,6.07-6.07V6.57c0-3.35-2.72-6.07-6.07-6.07Zm-25.34,64.69h-54.51l8.88-30.82s10.08-12.72,18.37-10.8h27.26v41.62Z"/><path class="cls-1" d="M473.82,.5h42.71c.12,0,.23,.08,.28,.19l26.92,72.84c.09,.26,.45,.26,.55,0L572.96,.69c.04-.11,.15-.19,.28-.19h49.28c.16,0,.3,.13,.3,.3V116.44c0,.16-.13,.3-.3,.3h-30.81c-.16,0-.3-.13-.3-.3l.58-85.75c0-.33-.46-.42-.57-.11l-32.53,85.97c-.04,.12-.15,.19-.28,.19h-26.85c-.12,0-.23-.08-.28-.19l-31.95-82.48c-.12-.31-.57-.22-.57,.11V116.45c0,.16-.13,.3-.3,.3h-32c-.16,0-.3-.13-.3-.3V7.95c0-4.12,3.34-7.45,7.45-7.45Z"/></svg>